# xmcd CD database file generated by OrangeCD 6.4
#
# Track frame offsets:
#	150
#	22265
#	44973
#	112522
#	137708
#	156445
#	243680
#
# Disc length: 4090 seconds
#
# Revision: 0
# Processed by: cddbd v1.5.2PL0 Copyright (c) Steve Scherf et al.
# Submitted via: OrangeCD 6.4
#
DISCID=630ff807
DTITLE=Jimi Hendrix and Friends - Jammin' With Jimi
DYEAR=2008
DGENRE=Blues Rock
TTITLE0=Buddy Guy Jam
TTITLE1=Hoochie Coochie Man
TTITLE2=Earth v. Space (incl. Midnight Lightning/Gypsy Eyes/Machine Gun/Red Hou
TTITLE2=se)
TTITLE3=The Things I Used To Do
TTITLE4=The Sky Is Crying
TTITLE5=Jam Pt.1 We Gotta Live Together
TTITLE6=Jam Pt. 2 Feel So Good/Sunshine Of Your Love
EXTD=
EXTT0=
EXTT1=
EXTT2=
EXTT3=
EXTT4=
EXTT5=
EXTT6=
PLAYORDER=
